<?xml version="1.0" encoding="UTF-8" standalone="no"?><!DOCTYPE svg PUBLIC "-//W3C//DTD SVG 1.1//EN" "http://www.w3.org/Graphics/SVG/1.1/DTD/svg11.dtd"><svg width="100%" height="100%" viewBox="0 0 49 49" version="1.1" xmlns="http://www.w3.org/2000/svg" xmlns:xlink="http://www.w3.org/1999/xlink" xml:space="preserve" xmlns:serif="http://www.serif.com/" style="fill-rule:evenodd;clip-rule:evenodd;stroke-linejoin:round;stroke-miterlimit:2;"><rect id="image" x="0.517" y="0.895" width="48" height="48" style="fill:none;"/><path d="M46.006,8.84l0,33.007l-42.065,0l0,-33.007l42.065,0Zm-39.618,21.942l5.986,-6.89l3.583,2.744l7.624,-8.615l7.014,6.874l3.583,-2.071l9.454,6.938l-0.229,-17.154l-36.823,-0.076l-0.192,18.25Z" style="fill:url(#_Linear1);"/><path d="M46.006,41.847l-42.065,0l0,-33.007l42.065,0l0,33.007Zm-41.065,-32.007l0,31.007l40.065,0l0,-31.007l-40.065,0Zm38.464,1.768l0.119,0.008l0.118,0.021l0.114,0.036l0.109,0.048l0.103,0.062l0.094,0.073l0.085,0.084l0.075,0.094l0.062,0.102l0.051,0.108l0.036,0.114l0.023,0.118l0.009,0.119l0.229,17.154l-0.006,0.123l-0.021,0.121l-0.036,0.118l-0.05,0.112l-0.063,0.106l-0.076,0.097l-0.087,0.086l-0.098,0.076l-0.105,0.063l-0.113,0.049l-0.118,0.036l-0.121,0.02l-0.123,0.006l-0.123,-0.01l-0.121,-0.025l-0.116,-0.039l-0.111,-0.053l-0.104,-0.067l-8.927,-6.551l-3.018,1.744l-0.105,0.053l-0.111,0.04l-0.115,0.027l-0.118,0.013l-0.118,-0.001l-0.117,-0.015l-0.114,-0.028l-0.111,-0.042l-0.104,-0.055l-0.098,-0.066l-0.089,-0.078l-6.263,-6.137l-6.926,7.827l-0.089,0.088l-0.098,0.076l-0.108,0.064l-0.114,0.05l-0.12,0.035l-0.124,0.019l-0.125,0.005l-0.124,-0.012l-0.122,-0.026l-0.118,-0.042l-0.111,-0.056l-0.104,-0.07l-2.837,-2.173l-5.369,6.181l-0.09,0.091l-0.101,0.079l-0.111,0.065l-0.117,0.051l-0.124,0.035l-0.126,0.019l-0.129,0.003l-0.127,-0.013l-0.125,-0.03l-0.119,-0.046l-0.113,-0.06l-0.105,-0.075l-0.094,-0.087l-0.082,-0.098l-0.069,-0.108l-0.054,-0.116l-0.039,-0.122l-0.023,-0.126l-0.007,-0.128l0.192,-18.251l0.008,-0.119l0.023,-0.118l0.037,-0.115l0.05,-0.109l0.063,-0.102l0.075,-0.094l0.085,-0.085l0.095,-0.073l0.103,-0.062l0.11,-0.048l0.115,-0.036l0.118,-0.021l0.12,-0.007l36.823,0.076Zm-37.017,19.174l5.986,-6.89l3.583,2.744l7.624,-8.615l7.014,6.874l3.583,-2.071l9.454,6.938l-0.229,-17.154l-36.823,-0.076l-0.192,18.25Z" style="fill:#515151;"/><defs><linearGradient id="_Linear1" x1="0" y1="0" x2="1" y2="0" gradientUnits="userSpaceOnUse" gradientTransform="matrix(2.0211e-15,33.0071,-33.0071,2.0211e-15,30.3716,8.83972)"><stop offset="0" style="stop-color:#686868;stop-opacity:1"/><stop offset="0.5" style="stop-color:#5a5a5a;stop-opacity:1"/><stop offset="1" style="stop-color:#a0a0a0;stop-opacity:1"/></linearGradient></defs></svg>