<?xml version="1.0" encoding="UTF-8" standalone="no"?><!DOCTYPE svg PUBLIC "-//W3C//DTD SVG 1.1//EN" "http://www.w3.org/Graphics/SVG/1.1/DTD/svg11.dtd"><svg width="100%" height="100%" viewBox="0 0 49 49" version="1.1" xmlns="http://www.w3.org/2000/svg" xmlns:xlink="http://www.w3.org/1999/xlink" xml:space="preserve" xmlns:serif="http://www.serif.com/" style="fill-rule:evenodd;clip-rule:evenodd;stroke-linejoin:round;stroke-miterlimit:2;"><rect id="link" x="0.401" y="0.821" width="48" height="48" style="fill:none;"/><path d="M29.558,35.362c-2.568,2.669 -4.968,5.703 -8.083,7.056c-6.076,2.638 -14.217,-2.11 -14.468,-9.122c-0.181,-5.073 4.317,-9.032 8.341,-13.006c3.957,-3.808 10.574,-3.925 14.635,0.188c0.496,0.515 0.928,1.08 1.296,1.68c-0.061,0.059 -0.122,0.117 -0.181,0.174c-0.14,0.132 -0.281,0.264 -0.422,0.395c-0.821,0.761 -1.654,1.509 -2.465,2.281c-0.957,0.922 -1.998,0.941 -2.764,0.525c-0.108,-0.147 -0.227,-0.286 -0.358,-0.415c-1.345,-1.295 -3.677,-1.306 -5.035,0c-2.245,2.218 -5.209,4.447 -6.031,6.406c-1.205,2.873 2.975,6.746 5.843,3.985c0.413,-0.407 0.849,-0.816 1.292,-1.224c2.381,1.214 5.107,1.719 7.673,1.241c0.247,-0.046 0.489,-0.101 0.727,-0.164Zm-10.145,-18.998c1.471,-1.737 3.234,-3.394 4.915,-5.054c3.957,-3.808 10.575,-3.925 14.636,0.188c3.701,3.844 3.859,10.438 0,14.448c-2.732,2.766 -5.222,6.065 -8.509,7.491c-4.567,1.983 -10.3,-0.207 -12.973,-4.394c1.839,-2.128 4.468,-4.185 6.23,-3.063c1.218,1.473 3.413,2.206 5.135,0.549c2.226,-2.199 5.156,-4.455 5.996,-6.326c0.602,-1.342 0.281,-3.024 -0.774,-4.065c-1.344,-1.295 -3.677,-1.307 -5.034,0c-0.35,0.345 -0.716,0.69 -1.089,1.034c-2.661,-1.29 -5.73,-1.537 -8.533,-0.808Z" style="fill:url(#_Linear1);"/><path d="M22.751,17.415l0.125,0.003l0.124,0.004l0.125,0.005l0.124,0.007l0.125,0.009l0.124,0.009l0.124,0.012l0.124,0.013l0.124,0.014l0.124,0.016l0.124,0.017l0.124,0.018l0.123,0.021l0.123,0.021l0.123,0.023l0.123,0.025l0.123,0.026l0.122,0.027l0.122,0.029l0.122,0.031l0.121,0.032l0.122,0.033l0.12,0.035l0.121,0.037l0.12,0.037l0.12,0.04l0.119,0.041l0.119,0.042l0.119,0.044l0.118,0.045l0.118,0.047l0.117,0.049l0.117,0.05l0.116,0.051l0.116,0.053l0.115,0.054l0.115,0.056l0.114,0.057l0.114,0.059l0.113,0.061l0.112,0.062l0.112,0.063l0.111,0.065l0.111,0.067l0.11,0.068l0.109,0.069l0.109,0.071l0.108,0.073l0.107,0.074l0.106,0.076l0.106,0.077l0.105,0.078l0.104,0.081l0.104,0.081l0.102,0.084l0.102,0.085l0.101,0.086l0.1,0.088l0.099,0.089l0.099,0.091l0.097,0.093l0.097,0.094l0.095,0.095l0.093,0.098l0.09,0.098l0.089,0.099l0.088,0.101l0.086,0.101l0.085,0.103l0.083,0.103l0.082,0.105l0.08,0.106l0.079,0.107l0.077,0.107l0.076,0.109l0.074,0.109l0.073,0.111l0.071,0.111l0.07,0.112l-0.181,0.174l-0.422,0.395l-0.308,0.285l-0.309,0.284l-0.619,0.567l-0.309,0.285l-0.308,0.285l-0.307,0.286l-0.305,0.289l-0.045,0.042l-0.045,0.041l-0.045,0.04l-0.045,0.039l-0.046,0.037l-0.045,0.037l-0.046,0.034l-0.045,0.034l-0.046,0.032l-0.045,0.032l-0.046,0.029l-0.046,0.029l-0.046,0.028l-0.045,0.026l-0.046,0.025l-0.046,0.024l-0.046,0.023l-0.045,0.022l-0.046,0.02l-0.046,0.02l-0.046,0.018l-0.045,0.017l-0.046,0.017l-0.045,0.015l-0.046,0.014l-0.045,0.013l-0.045,0.012l-0.045,0.011l-0.045,0.009l-0.045,0.009l-0.045,0.008l-0.045,0.007l-0.044,0.006l-0.045,0.005l-0.044,0.004l-0.044,0.003l-0.044,0.002l-0.043,0.001l-0.044,0l-0.043,0l-0.043,-0.002l-0.043,-0.002l-0.043,-0.004l-0.042,-0.004l-0.043,-0.005l-0.042,-0.006l-0.041,-0.007l-0.042,-0.007l-0.041,-0.008l-0.041,-0.01l-0.04,-0.01l-0.041,-0.01l-0.04,-0.012l-0.039,-0.012l-0.04,-0.013l-0.039,-0.014l-0.038,-0.014l-0.039,-0.015l-0.038,-0.016l-0.037,-0.017l-0.038,-0.017l-0.037,-0.018l-0.036,-0.018l-0.036,-0.019l-0.041,-0.055l-0.042,-0.054l-0.043,-0.053l-0.045,-0.052l-0.045,-0.052l-0.046,-0.05l-0.048,-0.05l-0.048,-0.049l-0.064,-0.06l-0.065,-0.058l-0.066,-0.056l-0.068,-0.054l-0.069,-0.052l-0.071,-0.05l-0.071,-0.049l-0.073,-0.046l-0.073,-0.045l-0.075,-0.043l-0.076,-0.041l-0.077,-0.039l-0.077,-0.037l-0.079,-0.035l-0.079,-0.033l-0.08,-0.032l-0.081,-0.029l-0.081,-0.028l-0.083,-0.026l-0.082,-0.024l-0.083,-0.022l-0.084,-0.02l-0.084,-0.018l-0.085,-0.016l-0.085,-0.015l-0.085,-0.012l-0.086,-0.011l-0.086,-0.009l-0.086,-0.006l-0.086,-0.005l-0.086,-0.003l-0.087,-0.001l-0.086,0l-0.086,0.003l-0.087,0.005l-0.086,0.006l-0.086,0.009l-0.085,0.01l-0.086,0.012l-0.085,0.015l-0.085,0.016l-0.084,0.018l-0.084,0.02l-0.083,0.021l-0.083,0.024l-0.083,0.026l-0.081,0.027l-0.082,0.03l-0.08,0.031l-0.08,0.034l-0.078,0.035l-0.078,0.037l-0.077,0.039l-0.077,0.041l-0.075,0.043l-0.074,0.045l-0.073,0.047l-0.072,0.048l-0.071,0.051l-0.069,0.052l-0.069,0.055l-0.067,0.056l-0.065,0.059l-0.065,0.06l-0.212,0.208l-0.216,0.208l-0.22,0.208l-0.222,0.208l-0.224,0.207l-0.226,0.208l-0.454,0.414l-0.454,0.413l-0.226,0.206l-0.224,0.205l-0.222,0.205l-0.22,0.204l-0.216,0.203l-0.213,0.203l-0.209,0.202l-0.204,0.201l-0.1,0.1l-0.098,0.1l-0.098,0.1l-0.095,0.1l-0.095,0.099l-0.092,0.099l-0.091,0.099l-0.089,0.099l-0.087,0.098l-0.086,0.098l-0.083,0.098l-0.081,0.097l-0.08,0.097l-0.077,0.097l-0.075,0.097l-0.072,0.096l-0.071,0.096l-0.067,0.096l-0.066,0.095l-0.063,0.095l-0.06,0.095l-0.057,0.094l-0.055,0.094l-0.052,0.093l-0.049,0.093l-0.046,0.093l-0.043,0.093l-0.041,0.092l-0.027,0.067l-0.025,0.068l-0.024,0.068l-0.021,0.069l-0.02,0.068l-0.017,0.069l-0.016,0.07l-0.014,0.069l-0.012,0.07l-0.011,0.07l-0.008,0.07l-0.007,0.07l-0.005,0.07l-0.004,0.07l-0.001,0.071l0,0.07l0.001,0.07l0.004,0.071l0.005,0.07l0.006,0.071l0.008,0.07l0.01,0.07l0.011,0.07l0.013,0.07l0.015,0.07l0.015,0.069l0.018,0.07l0.018,0.069l0.021,0.069l0.021,0.068l0.023,0.069l0.025,0.068l0.025,0.067l0.027,0.068l0.029,0.067l0.029,0.066l0.031,0.066l0.033,0.066l0.033,0.065l0.035,0.065l0.036,0.064l0.037,0.064l0.038,0.063l0.039,0.063l0.041,0.062l0.042,0.061l0.042,0.061l0.044,0.06l0.045,0.06l0.046,0.058l0.047,0.058l0.048,0.058l0.049,0.056l0.049,0.056l0.051,0.055l0.052,0.054l0.053,0.053l0.053,0.052l0.054,0.051l0.056,0.051l0.055,0.049l0.057,0.049l0.058,0.048l0.058,0.046l0.059,0.046l0.06,0.044l0.061,0.043l0.061,0.043l0.062,0.041l0.062,0.04l0.064,0.039l0.063,0.038l0.065,0.036l0.065,0.035l0.065,0.034l0.066,0.033l0.067,0.032l0.067,0.03l0.067,0.028l0.068,0.028l0.069,0.026l0.069,0.025l0.069,0.023l0.069,0.022l0.07,0.02l0.071,0.019l0.07,0.017l0.071,0.016l0.072,0.014l0.071,0.013l0.072,0.011l0.072,0.009l0.072,0.008l0.073,0.006l0.072,0.004l0.073,0.003l0.073,0.001l0.073,-0.001l0.073,-0.002l0.073,-0.005l0.073,-0.006l0.073,-0.008l0.073,-0.01l0.074,-0.011l0.073,-0.014l0.073,-0.016l0.073,-0.017l0.073,-0.02l0.073,-0.021l0.073,-0.024l0.073,-0.025l0.072,-0.028l0.073,-0.029l0.072,-0.032l0.072,-0.034l0.072,-0.036l0.071,-0.038l0.071,-0.041l0.071,-0.042l0.071,-0.045l0.07,-0.047l0.07,-0.05l0.07,-0.051l0.069,-0.054l0.069,-0.057l0.068,-0.058l0.068,-0.062l0.067,-0.063l0.156,-0.153l0.158,-0.153l0.159,-0.153l0.162,-0.153l0.162,-0.153l0.164,-0.153l0.331,-0.306l0.112,0.056l0.112,0.056l0.113,0.054l0.113,0.053l0.114,0.052l0.114,0.051l0.115,0.05l0.115,0.049l0.115,0.048l0.116,0.047l0.117,0.046l0.116,0.044l0.117,0.044l0.118,0.042l0.117,0.041l0.119,0.04l0.118,0.039l0.119,0.038l0.119,0.037l0.119,0.035l0.119,0.034l0.12,0.034l0.12,0.032l0.121,0.03l0.12,0.03l0.121,0.028l0.121,0.028l0.121,0.025l0.121,0.025l0.122,0.024l0.121,0.022l0.122,0.021l0.122,0.02l0.122,0.019l0.122,0.017l0.123,0.016l0.122,0.015l0.123,0.013l0.122,0.013l0.123,0.011l0.122,0.009l0.123,0.009l0.122,0.007l0.123,0.006l0.123,0.004l0.122,0.003l0.123,0.002l0.123,0.001l0.122,-0.001l0.123,-0.002l0.122,-0.004l0.122,-0.005l0.123,-0.006l0.122,-0.008l0.122,-0.009l0.122,-0.01l0.121,-0.012l0.122,-0.013l0.121,-0.015l0.122,-0.016l0.121,-0.017l0.12,-0.019l0.121,-0.02l0.12,-0.022l0.093,-0.017l0.092,-0.019l0.091,-0.019l0.091,-0.02l0.091,-0.021l0.09,-0.022l0.09,-0.022l0.089,-0.024l-0.24,0.252l-0.24,0.253l-0.238,0.254l-0.239,0.255l-0.476,0.513l-0.475,0.512l-0.239,0.254l-0.238,0.254l-0.24,0.252l-0.24,0.25l-0.241,0.248l-0.242,0.245l-0.122,0.121l-0.122,0.12l-0.122,0.12l-0.122,0.119l-0.124,0.118l-0.123,0.116l-0.124,0.116l-0.124,0.114l-0.125,0.114l-0.125,0.112l-0.126,0.111l-0.127,0.11l-0.127,0.108l-0.127,0.107l-0.128,0.106l-0.129,0.104l-0.13,0.102l-0.13,0.101l-0.131,0.099l-0.131,0.098l-0.132,0.096l-0.133,0.094l-0.134,0.093l-0.134,0.09l-0.136,0.089l-0.136,0.086l-0.137,0.085l-0.138,0.083l-0.138,0.08l-0.14,0.079l-0.141,0.076l-0.141,0.074l-0.143,0.072l-0.143,0.069l-0.144,0.067l-0.146,0.065l-0.143,0.06l-0.143,0.058l-0.144,0.055l-0.145,0.053l-0.146,0.049l-0.146,0.048l-0.147,0.044l-0.147,0.042l-0.148,0.039l-0.148,0.037l-0.149,0.034l-0.149,0.032l-0.15,0.029l-0.15,0.027l-0.15,0.024l-0.151,0.022l-0.151,0.019l-0.151,0.017l-0.152,0.014l-0.151,0.012l-0.152,0.009l-0.152,0.007l-0.153,0.005l-0.152,0.002l-0.152,0l-0.153,-0.002l-0.152,-0.005l-0.153,-0.007l-0.152,-0.009l-0.152,-0.012l-0.153,-0.014l-0.152,-0.016l-0.152,-0.018l-0.151,-0.021l-0.152,-0.022l-0.151,-0.025l-0.151,-0.027l-0.151,-0.03l-0.15,-0.031l-0.15,-0.034l-0.15,-0.035l-0.149,-0.038l-0.149,-0.04l-0.149,-0.042l-0.147,-0.044l-0.148,-0.046l-0.147,-0.048l-0.146,-0.05l-0.145,-0.052l-0.145,-0.055l-0.145,-0.056l-0.143,-0.058l-0.143,-0.06l-0.142,-0.062l-0.141,-0.063l-0.141,-0.066l-0.14,-0.068l-0.138,-0.069l-0.138,-0.072l-0.137,-0.073l-0.136,-0.075l-0.135,-0.076l-0.134,-0.079l-0.133,-0.08l-0.132,-0.083l-0.131,-0.083l-0.13,-0.086l-0.128,-0.087l-0.128,-0.09l-0.126,-0.09l-0.125,-0.093l-0.124,-0.094l-0.122,-0.096l-0.121,-0.097l-0.12,-0.099l-0.118,-0.101l-0.117,-0.102l-0.115,-0.104l-0.114,-0.105l-0.113,-0.107l-0.111,-0.108l-0.109,-0.11l-0.108,-0.112l-0.107,-0.113l-0.104,-0.114l-0.103,-0.116l-0.101,-0.117l-0.1,-0.119l-0.098,-0.12l-0.096,-0.122l-0.094,-0.123l-0.092,-0.124l-0.091,-0.126l-0.088,-0.127l-0.087,-0.128l-0.085,-0.13l-0.083,-0.13l-0.08,-0.133l-0.079,-0.133l-0.077,-0.135l-0.074,-0.136l-0.073,-0.137l-0.07,-0.139l-0.068,-0.139l-0.066,-0.141l-0.064,-0.142l-0.061,-0.143l-0.059,-0.144l-0.057,-0.146l-0.054,-0.146l-0.053,-0.148l-0.049,-0.149l-0.047,-0.149l-0.045,-0.151l-0.042,-0.152l-0.04,-0.153l-0.037,-0.153l-0.035,-0.155l-0.032,-0.156l-0.03,-0.157l-0.026,-0.158l-0.024,-0.158l-0.022,-0.16l-0.018,-0.16l-0.016,-0.162l-0.013,-0.162l-0.01,-0.163l-0.008,-0.164l-0.003,-0.118l-0.002,-0.119l0,-0.118l0.002,-0.117l0.003,-0.117l0.005,-0.117l0.007,-0.116l0.008,-0.116l0.01,-0.116l0.011,-0.115l0.013,-0.115l0.015,-0.114l0.016,-0.114l0.017,-0.114l0.019,-0.113l0.021,-0.113l0.022,-0.113l0.023,-0.112l0.025,-0.112l0.027,-0.112l0.027,-0.111l0.03,-0.111l0.03,-0.11l0.032,-0.11l0.033,-0.11l0.035,-0.11l0.036,-0.109l0.037,-0.109l0.039,-0.109l0.04,-0.108l0.041,-0.108l0.042,-0.107l0.044,-0.108l0.045,-0.107l0.046,-0.107l0.047,-0.106l0.049,-0.106l0.049,-0.106l0.051,-0.106l0.052,-0.105l0.053,-0.105l0.054,-0.105l0.056,-0.104l0.056,-0.104l0.057,-0.104l0.059,-0.104l0.059,-0.103l0.061,-0.104l0.061,-0.102l0.063,-0.103l0.063,-0.103l0.065,-0.102l0.065,-0.102l0.066,-0.101l0.068,-0.102l0.068,-0.101l0.069,-0.101l0.07,-0.101l0.071,-0.1l0.071,-0.101l0.073,-0.1l0.073,-0.1l0.074,-0.099l0.075,-0.1l0.152,-0.198l0.155,-0.198l0.157,-0.197l0.161,-0.196l0.163,-0.195l0.166,-0.195l0.168,-0.194l0.17,-0.194l0.172,-0.193l0.175,-0.192l0.176,-0.192l0.178,-0.191l0.18,-0.191l0.181,-0.19l0.183,-0.19l0.184,-0.189l0.185,-0.189l0.186,-0.189l0.187,-0.188l0.188,-0.188l0.379,-0.376l0.38,-0.374l0.762,-0.746l0.38,-0.373l0.379,-0.373l0.093,-0.088l0.094,-0.087l0.095,-0.086l0.097,-0.085l0.096,-0.083l0.098,-0.082l0.099,-0.08l0.1,-0.079l0.1,-0.078l0.102,-0.076l0.102,-0.075l0.103,-0.074l0.103,-0.072l0.105,-0.071l0.105,-0.069l0.106,-0.069l0.107,-0.066l0.108,-0.066l0.108,-0.064l0.109,-0.062l0.109,-0.062l0.11,-0.059l0.111,-0.059l0.112,-0.057l0.112,-0.056l0.113,-0.054l0.113,-0.053l0.114,-0.051l0.114,-0.05l0.115,-0.049l0.116,-0.047l0.116,-0.046l0.116,-0.045l0.117,-0.043l0.118,-0.042l0.118,-0.04l0.118,-0.039l0.119,-0.037l0.119,-0.036l0.12,-0.035l0.12,-0.033l0.12,-0.032l0.121,-0.03l0.121,-0.029l0.121,-0.028l0.122,-0.026l0.122,-0.025l0.122,-0.023l0.122,-0.022l0.123,-0.021l0.123,-0.019l0.123,-0.017l0.123,-0.016l0.124,-0.015l0.123,-0.013l0.124,-0.012l0.124,-0.011l0.124,-0.009l0.124,-0.007l0.125,-0.006l0.124,-0.005l0.125,-0.003l0.124,-0.002l0.125,0l0.124,0.001Zm-0.241,0.999l-0.113,0.002l-0.112,0.003l-0.113,0.004l-0.113,0.005l-0.112,0.007l-0.113,0.008l-0.112,0.01l-0.113,0.011l-0.112,0.012l-0.112,0.013l-0.111,0.015l-0.112,0.016l-0.111,0.017l-0.112,0.018l-0.111,0.02l-0.11,0.021l-0.111,0.023l-0.11,0.023l-0.11,0.025l-0.11,0.027l-0.109,0.027l-0.109,0.029l-0.109,0.03l-0.108,0.032l-0.108,0.032l-0.107,0.034l-0.107,0.035l-0.107,0.037l-0.106,0.038l-0.106,0.039l-0.106,0.04l-0.105,0.041l-0.104,0.043l-0.104,0.044l-0.104,0.045l-0.102,0.047l-0.103,0.048l-0.102,0.049l-0.101,0.05l-0.101,0.052l-0.1,0.052l-0.099,0.054l-0.099,0.056l-0.099,0.056l-0.097,0.058l-0.097,0.059l-0.096,0.06l-0.096,0.062l-0.095,0.062l-0.094,0.064l-0.094,0.065l-0.093,0.067l-0.092,0.067l-0.091,0.069l-0.091,0.07l-0.089,0.071l-0.089,0.073l-0.088,0.073l-0.088,0.075l-0.086,0.076l-0.086,0.078l-0.085,0.078l-0.082,0.078l-0.373,0.367l-0.381,0.374l-0.762,0.746l-0.377,0.372l-0.376,0.372l-0.186,0.186l-0.185,0.186l-0.183,0.186l-0.183,0.186l-0.18,0.186l-0.18,0.186l-0.177,0.187l-0.176,0.187l-0.174,0.186l-0.172,0.187l-0.17,0.187l-0.167,0.188l-0.165,0.187l-0.162,0.188l-0.16,0.188l-0.157,0.188l-0.154,0.188l-0.152,0.189l-0.148,0.189l-0.146,0.191l-0.07,0.093l-0.07,0.095l-0.07,0.095l-0.069,0.095l-0.068,0.095l-0.066,0.095l-0.066,0.095l-0.066,0.095l-0.064,0.096l-0.063,0.095l-0.062,0.096l-0.062,0.095l-0.06,0.096l-0.059,0.095l-0.058,0.096l-0.058,0.096l-0.056,0.096l-0.055,0.096l-0.054,0.096l-0.054,0.096l-0.052,0.096l-0.051,0.097l-0.049,0.096l-0.049,0.097l-0.048,0.096l-0.046,0.097l-0.046,0.097l-0.044,0.097l-0.043,0.097l-0.042,0.097l-0.041,0.097l-0.039,0.097l-0.039,0.098l-0.037,0.097l-0.036,0.098l-0.035,0.098l-0.033,0.097l-0.032,0.098l-0.031,0.099l-0.03,0.098l-0.029,0.098l-0.027,0.099l-0.026,0.099l-0.025,0.099l-0.023,0.099l-0.022,0.099l-0.021,0.1l-0.02,0.099l-0.018,0.1l-0.017,0.1l-0.015,0.101l-0.014,0.1l-0.013,0.101l-0.011,0.101l-0.01,0.102l-0.009,0.101l-0.007,0.102l-0.006,0.102l-0.004,0.103l-0.003,0.103l-0.002,0.103l0,0.104l0.002,0.104l0.003,0.104l0.006,0.147l0.009,0.145l0.012,0.145l0.014,0.143l0.017,0.143l0.019,0.143l0.021,0.141l0.024,0.14l0.026,0.14l0.029,0.139l0.031,0.138l0.033,0.137l0.035,0.136l0.038,0.135l0.04,0.135l0.042,0.134l0.044,0.132l0.047,0.132l0.048,0.131l0.051,0.13l0.053,0.129l0.055,0.128l0.057,0.127l0.059,0.127l0.061,0.125l0.063,0.124l0.065,0.123l0.067,0.122l0.069,0.122l0.071,0.12l0.073,0.119l0.074,0.118l0.077,0.117l0.078,0.115l0.08,0.115l0.082,0.114l0.083,0.112l0.086,0.111l0.087,0.11l0.088,0.109l0.09,0.108l0.092,0.106l0.094,0.105l0.095,0.104l0.096,0.103l0.098,0.101l0.1,0.1l0.101,0.099l0.102,0.097l0.104,0.096l0.105,0.095l0.107,0.093l0.108,0.092l0.109,0.09l0.111,0.089l0.111,0.087l0.113,0.086l0.114,0.085l0.116,0.083l0.116,0.081l0.118,0.08l0.118,0.078l0.12,0.077l0.121,0.075l0.121,0.074l0.123,0.072l0.123,0.07l0.125,0.068l0.125,0.067l0.126,0.066l0.127,0.063l0.128,0.062l0.128,0.06l0.129,0.058l0.13,0.057l0.131,0.055l0.131,0.053l0.132,0.051l0.132,0.049l0.133,0.048l0.133,0.046l0.134,0.043l0.134,0.042l0.135,0.041l0.135,0.038l0.136,0.036l0.136,0.034l0.136,0.033l0.136,0.03l0.137,0.029l0.137,0.027l0.137,0.024l0.137,0.023l0.137,0.02l0.137,0.019l0.138,0.017l0.137,0.014l0.138,0.013l0.137,0.01l0.138,0.009l0.137,0.006l0.137,0.004l0.138,0.002l0.137,0l0.136,-0.002l0.137,-0.004l0.136,-0.006l0.137,-0.009l0.135,-0.01l0.136,-0.013l0.135,-0.015l0.135,-0.017l0.134,-0.02l0.134,-0.021l0.134,-0.024l0.133,-0.026l0.133,-0.028l0.132,-0.03l0.132,-0.033l0.131,-0.035l0.131,-0.037l0.13,-0.04l0.13,-0.042l0.129,-0.044l0.128,-0.046l0.127,-0.049l0.127,-0.051l0.127,-0.054l0.13,-0.057l0.13,-0.061l0.129,-0.062l0.128,-0.065l0.128,-0.067l0.128,-0.069l0.127,-0.071l0.126,-0.074l0.126,-0.075l0.126,-0.078l0.125,-0.079l0.124,-0.082l0.125,-0.084l0.124,-0.085l0.123,-0.088l0.123,-0.089l0.123,-0.091l0.122,-0.093l0.122,-0.095l0.122,-0.096l0.121,-0.098l0.122,-0.1l0.12,-0.101l0.121,-0.103l0.12,-0.105l0.12,-0.105l0.12,-0.108l0.12,-0.108l0.119,-0.11l0.119,-0.112l0.119,-0.112l0.119,-0.114l0.119,-0.115l0.118,-0.116l0.119,-0.117l0.117,-0.117l0.237,-0.24l0.236,-0.242l0.236,-0.246l0.236,-0.248l0.236,-0.251l0.236,-0.252l0.014,-0.015l-0.046,0.001l-0.133,-0.001l-0.134,-0.002l-0.133,-0.003l-0.134,-0.005l-0.133,-0.006l-0.133,-0.008l-0.133,-0.009l-0.133,-0.011l-0.133,-0.012l-0.133,-0.013l-0.133,-0.015l-0.133,-0.016l-0.132,-0.017l-0.132,-0.019l-0.132,-0.02l-0.132,-0.022l-0.132,-0.022l-0.132,-0.025l-0.131,-0.025l-0.131,-0.027l-0.131,-0.028l-0.13,-0.029l-0.13,-0.031l-0.13,-0.032l-0.13,-0.033l-0.13,-0.034l-0.129,-0.036l-0.129,-0.037l-0.128,-0.038l-0.128,-0.04l-0.128,-0.04l-0.127,-0.042l-0.127,-0.043l-0.127,-0.045l-0.126,-0.045l-0.126,-0.047l-0.126,-0.048l-0.125,-0.049l-0.124,-0.05l-0.124,-0.052l-0.124,-0.052l-0.123,-0.054l-0.092,-0.041l-0.152,0.143l-0.158,0.15l-0.156,0.149l-0.154,0.149l-0.161,0.158l-0.083,0.078l-0.085,0.077l-0.086,0.074l-0.087,0.071l-0.087,0.068l-0.089,0.066l-0.09,0.064l-0.091,0.06l-0.091,0.058l-0.092,0.056l-0.093,0.053l-0.094,0.05l-0.095,0.047l-0.094,0.045l-0.096,0.042l-0.096,0.039l-0.097,0.037l-0.097,0.034l-0.097,0.032l-0.097,0.028l-0.098,0.026l-0.098,0.024l-0.098,0.021l-0.098,0.018l-0.099,0.016l-0.098,0.013l-0.098,0.011l-0.098,0.008l-0.097,0.006l-0.098,0.003l-0.097,0.001l-0.097,-0.001l-0.096,-0.004l-0.096,-0.006l-0.096,-0.008l-0.094,-0.01l-0.095,-0.012l-0.094,-0.015l-0.093,-0.016l-0.093,-0.019l-0.092,-0.02l-0.091,-0.023l-0.091,-0.024l-0.09,-0.026l-0.089,-0.028l-0.089,-0.03l-0.088,-0.031l-0.087,-0.033l-0.086,-0.035l-0.085,-0.036l-0.085,-0.038l-0.084,-0.04l-0.082,-0.041l-0.082,-0.042l-0.081,-0.044l-0.081,-0.046l-0.079,-0.047l-0.078,-0.048l-0.078,-0.05l-0.076,-0.051l-0.076,-0.052l-0.075,-0.053l-0.073,-0.055l-0.073,-0.056l-0.071,-0.057l-0.071,-0.058l-0.07,-0.06l-0.068,-0.061l-0.068,-0.061l-0.066,-0.063l-0.066,-0.064l-0.064,-0.065l-0.063,-0.066l-0.062,-0.067l-0.061,-0.068l-0.06,-0.069l-0.058,-0.07l-0.058,-0.071l-0.056,-0.072l-0.055,-0.073l-0.054,-0.074l-0.052,-0.074l-0.051,-0.076l-0.05,-0.076l-0.049,-0.077l-0.047,-0.078l-0.046,-0.079l-0.044,-0.08l-0.044,-0.08l-0.041,-0.081l-0.04,-0.082l-0.039,-0.083l-0.037,-0.084l-0.036,-0.084l-0.034,-0.085l-0.033,-0.085l-0.031,-0.086l-0.029,-0.087l-0.027,-0.088l-0.026,-0.088l-0.024,-0.089l-0.022,-0.089l-0.021,-0.09l-0.018,-0.09l-0.017,-0.091l-0.015,-0.092l-0.013,-0.092l-0.01,-0.092l-0.009,-0.093l-0.007,-0.093l-0.004,-0.094l-0.002,-0.094l0,-0.094l0.002,-0.095l0.005,-0.094l0.006,-0.095l0.01,-0.095l0.011,-0.095l0.014,-0.095l0.017,-0.095l0.019,-0.095l0.022,-0.094l0.024,-0.095l0.027,-0.094l0.029,-0.094l0.032,-0.093l0.035,-0.093l0.037,-0.092l0.051,-0.117l0.054,-0.115l0.057,-0.114l0.059,-0.114l0.063,-0.112l0.065,-0.112l0.067,-0.11l0.071,-0.11l0.072,-0.11l0.074,-0.109l0.077,-0.108l0.079,-0.107l0.081,-0.108l0.083,-0.107l0.085,-0.106l0.086,-0.106l0.089,-0.106l0.09,-0.106l0.092,-0.105l0.093,-0.105l0.095,-0.105l0.096,-0.105l0.098,-0.105l0.099,-0.105l0.101,-0.104l0.101,-0.105l0.103,-0.104l0.105,-0.105l0.21,-0.207l0.215,-0.208l0.218,-0.208l0.221,-0.208l0.223,-0.207l0.225,-0.208l0.227,-0.207l0.227,-0.207l0.454,-0.412l0.452,-0.413l0.223,-0.205l0.221,-0.204l0.218,-0.204l0.214,-0.203l0.211,-0.203l0.217,-0.212l0.082,-0.077l0.085,-0.076l0.088,-0.074l0.089,-0.071l0.09,-0.068l0.092,-0.066l0.093,-0.063l0.095,-0.06l0.095,-0.058l0.097,-0.055l0.098,-0.053l0.099,-0.05l0.1,-0.048l0.101,-0.045l0.102,-0.043l0.103,-0.04l0.103,-0.037l0.104,-0.036l0.104,-0.032l0.105,-0.03l0.106,-0.028l0.106,-0.025l0.107,-0.023l0.107,-0.02l0.107,-0.018l0.108,-0.015l0.108,-0.013l0.108,-0.011l0.108,-0.008l0.108,-0.006l0.109,-0.003l0.108,-0.001l0.108,0.001l0.109,0.004l0.108,0.006l0.108,0.008l0.108,0.011l0.108,0.014l0.107,0.015l0.107,0.019l0.107,0.02l0.106,0.023l0.106,0.026l0.105,0.027l0.105,0.031l0.104,0.032l0.104,0.035l0.103,0.038l0.102,0.04l0.101,0.043l0.1,0.045l0.1,0.047l0.098,0.051l0.098,0.052l0.096,0.055l0.095,0.058l0.094,0.06l0.093,0.063l0.091,0.065l0.09,0.068l0.088,0.071l0.087,0.073l0.085,0.075l0.087,0.082l0.068,0.068l0.062,0.065l0.059,0.065l0.059,0.067l0.051,0.061l0.002,0l0.02,0.007l0.021,0.007l0.022,0.007l0.021,0.006l0.021,0.005l0.021,0.006l0.022,0.004l0.021,0.005l0.022,0.004l0.021,0.003l0.022,0.003l0.022,0.003l0.022,0.002l0.022,0.002l0.022,0.001l0.023,0.001l0.022,0l0.023,0l0.023,0l0.022,-0.002l0.023,-0.001l0.024,-0.002l0.023,-0.003l0.024,-0.003l0.023,-0.004l0.024,-0.004l0.025,-0.005l0.024,-0.005l0.025,-0.006l0.025,-0.007l0.025,-0.007l0.026,-0.008l0.026,-0.008l0.025,-0.009l0.027,-0.01l0.027,-0.011l0.027,-0.012l0.027,-0.012l0.027,-0.013l0.028,-0.014l0.029,-0.015l0.028,-0.016l0.029,-0.016l0.029,-0.018l0.03,-0.018l0.03,-0.02l0.03,-0.02l0.03,-0.022l0.031,-0.023l0.032,-0.024l0.031,-0.025l0.032,-0.026l0.032,-0.027l0.032,-0.029l0.032,-0.029l0.04,-0.038l0.308,-0.291l0.31,-0.29l0.311,-0.287l0.31,-0.286l0.62,-0.568l0.308,-0.283l0.284,-0.263l-0.016,-0.022l-0.072,-0.095l-0.074,-0.094l-0.074,-0.093l-0.076,-0.092l-0.078,-0.091l-0.078,-0.09l-0.08,-0.089l-0.081,-0.088l-0.079,-0.083l-0.082,-0.081l-0.087,-0.085l-0.088,-0.084l-0.089,-0.082l-0.09,-0.081l-0.09,-0.079l-0.091,-0.078l-0.092,-0.077l-0.093,-0.075l-0.093,-0.074l-0.094,-0.072l-0.095,-0.071l-0.095,-0.07l-0.096,-0.068l-0.097,-0.067l-0.097,-0.065l-0.098,-0.065l-0.099,-0.062l-0.099,-0.062l-0.099,-0.06l-0.101,-0.058l-0.101,-0.057l-0.101,-0.056l-0.102,-0.055l-0.103,-0.053l-0.103,-0.052l-0.103,-0.05l-0.104,-0.049l-0.105,-0.048l-0.105,-0.046l-0.105,-0.045l-0.106,-0.044l-0.106,-0.042l-0.107,-0.041l-0.107,-0.04l-0.107,-0.038l-0.108,-0.037l-0.109,-0.036l-0.108,-0.034l-0.109,-0.033l-0.109,-0.031l-0.11,-0.031l-0.11,-0.029l-0.11,-0.027l-0.11,-0.026l-0.111,-0.025l-0.111,-0.024l-0.111,-0.022l-0.111,-0.021l-0.112,-0.019l-0.112,-0.019l-0.112,-0.017l-0.112,-0.015l-0.112,-0.014l-0.112,-0.013l-0.113,-0.012l-0.112,-0.01l-0.113,-0.009l-0.113,-0.008l-0.112,-0.006l-0.113,-0.005l-0.113,-0.004l-0.113,-0.002l-0.113,-0.001l-0.113,0Zm9.221,-9.979l0.125,0.002l0.125,0.004l0.124,0.006l0.124,0.007l0.125,0.008l0.124,0.01l0.124,0.011l0.125,0.013l0.124,0.014l0.124,0.016l0.123,0.017l0.124,0.019l0.123,0.02l0.124,0.022l0.123,0.023l0.122,0.024l0.123,0.026l0.122,0.028l0.122,0.029l0.122,0.03l0.122,0.032l0.121,0.034l0.121,0.035l0.12,0.036l0.12,0.038l0.12,0.04l0.12,0.04l0.119,0.043l0.118,0.044l0.118,0.045l0.118,0.047l0.117,0.048l0.117,0.05l0.116,0.052l0.116,0.052l0.116,0.055l0.114,0.056l0.115,0.057l0.113,0.059l0.113,0.06l0.113,0.062l0.112,0.064l0.111,0.065l0.11,0.066l0.11,0.068l0.11,0.07l0.108,0.071l0.108,0.072l0.107,0.075l0.107,0.075l0.105,0.077l0.105,0.079l0.105,0.08l0.103,0.082l0.103,0.083l0.101,0.085l0.101,0.087l0.1,0.087l0.1,0.09l0.098,0.091l0.098,0.092l0.096,0.094l0.096,0.096l0.086,0.091l0.085,0.091l0.083,0.093l0.082,0.093l0.081,0.095l0.08,0.095l0.078,0.097l0.077,0.097l0.076,0.098l0.074,0.099l0.073,0.1l0.072,0.1l0.07,0.102l0.069,0.102l0.068,0.103l0.067,0.104l0.065,0.105l0.064,0.105l0.062,0.106l0.061,0.107l0.06,0.108l0.059,0.108l0.057,0.109l0.056,0.109l0.054,0.111l0.053,0.11l0.052,0.112l0.051,0.112l0.049,0.112l0.048,0.114l0.047,0.113l0.045,0.115l0.044,0.114l0.042,0.116l0.041,0.115l0.04,0.117l0.039,0.116l0.037,0.117l0.036,0.118l0.034,0.118l0.033,0.118l0.032,0.119l0.03,0.119l0.029,0.12l0.028,0.119l0.026,0.12l0.025,0.121l0.024,0.121l0.022,0.121l0.021,0.121l0.019,0.121l0.018,0.122l0.017,0.122l0.016,0.122l0.014,0.122l0.012,0.123l0.011,0.122l0.01,0.123l0.009,0.123l0.007,0.123l0.006,0.123l0.004,0.123l0.003,0.124l0.002,0.123l0,0.123l-0.001,0.123l-0.003,0.124l-0.004,0.123l-0.005,0.123l-0.007,0.124l-0.008,0.123l-0.009,0.123l-0.011,0.123l-0.012,0.123l-0.014,0.122l-0.015,0.123l-0.017,0.123l-0.017,0.122l-0.02,0.122l-0.02,0.122l-0.023,0.122l-0.023,0.121l-0.025,0.121l-0.026,0.121l-0.028,0.121l-0.029,0.12l-0.031,0.121l-0.032,0.119l-0.033,0.12l-0.035,0.119l-0.036,0.119l-0.038,0.118l-0.039,0.118l-0.04,0.117l-0.042,0.118l-0.044,0.116l-0.044,0.116l-0.047,0.116l-0.047,0.115l-0.049,0.115l-0.051,0.114l-0.052,0.114l-0.053,0.113l-0.055,0.113l-0.056,0.112l-0.058,0.111l-0.059,0.111l-0.061,0.11l-0.062,0.11l-0.063,0.109l-0.065,0.108l-0.066,0.107l-0.068,0.107l-0.069,0.106l-0.071,0.106l-0.072,0.104l-0.074,0.104l-0.075,0.103l-0.077,0.102l-0.078,0.102l-0.079,0.1l-0.081,0.1l-0.082,0.099l-0.084,0.098l-0.086,0.097l-0.086,0.097l-0.089,0.095l-0.089,0.095l-0.128,0.13l-0.128,0.13l-0.254,0.264l-0.253,0.266l-0.252,0.267l-0.252,0.269l-0.251,0.27l-0.502,0.541l-0.251,0.27l-0.251,0.269l-0.252,0.268l-0.252,0.266l-0.254,0.264l-0.254,0.261l-0.128,0.129l-0.128,0.129l-0.128,0.128l-0.129,0.127l-0.129,0.126l-0.129,0.125l-0.13,0.124l-0.131,0.122l-0.131,0.122l-0.131,0.12l-0.132,0.119l-0.133,0.117l-0.133,0.117l-0.134,0.114l-0.134,0.113l-0.135,0.112l-0.136,0.11l-0.137,0.108l-0.137,0.106l-0.138,0.105l-0.139,0.103l-0.139,0.101l-0.141,0.098l-0.141,0.097l-0.142,0.095l-0.144,0.093l-0.144,0.09l-0.145,0.088l-0.146,0.086l-0.147,0.084l-0.147,0.081l-0.15,0.079l-0.15,0.076l-0.151,0.073l-0.152,0.071l-0.154,0.068l-0.107,0.046l-0.108,0.044l-0.108,0.043l-0.108,0.041l-0.109,0.04l-0.109,0.038l-0.11,0.037l-0.11,0.035l-0.11,0.033l-0.11,0.033l-0.111,0.03l-0.111,0.03l-0.112,0.028l-0.111,0.026l-0.112,0.025l-0.113,0.024l-0.112,0.022l-0.113,0.02l-0.113,0.02l-0.113,0.017l-0.113,0.017l-0.113,0.015l-0.114,0.014l-0.114,0.012l-0.114,0.011l-0.114,0.009l-0.114,0.009l-0.114,0.006l-0.114,0.006l-0.115,0.004l-0.114,0.003l-0.114,0.001l-0.115,0l-0.115,-0.001l-0.114,-0.003l-0.115,-0.003l-0.114,-0.006l-0.115,-0.006l-0.114,-0.008l-0.115,-0.009l-0.114,-0.01l-0.115,-0.012l-0.114,-0.013l-0.114,-0.014l-0.114,-0.015l-0.114,-0.017l-0.114,-0.018l-0.114,-0.019l-0.113,-0.02l-0.114,-0.022l-0.113,-0.022l-0.113,-0.024l-0.113,-0.025l-0.112,-0.027l-0.112,-0.027l-0.113,-0.029l-0.111,-0.03l-0.112,-0.031l-0.111,-0.032l-0.111,-0.034l-0.111,-0.034l-0.111,-0.036l-0.11,-0.037l-0.11,-0.038l-0.109,-0.039l-0.109,-0.04l-0.109,-0.042l-0.108,-0.042l-0.108,-0.044l-0.107,-0.045l-0.108,-0.045l-0.106,-0.047l-0.106,-0.048l-0.106,-0.049l-0.106,-0.05l-0.104,-0.052l-0.105,-0.052l-0.104,-0.053l-0.103,-0.054l-0.103,-0.056l-0.102,-0.056l-0.102,-0.057l-0.101,-0.059l-0.1,-0.059l-0.1,-0.061l-0.099,-0.061l-0.099,-0.063l-0.098,-0.063l-0.098,-0.064l-0.097,-0.066l-0.096,-0.066l-0.095,-0.067l-0.095,-0.069l-0.094,-0.069l-0.094,-0.07l-0.092,-0.071l-0.092,-0.072l-0.091,-0.073l-0.091,-0.074l-0.09,-0.075l-0.089,-0.075l-0.088,-0.077l-0.087,-0.077l-0.086,-0.079l-0.086,-0.079l-0.085,-0.08l-0.084,-0.081l-0.083,-0.082l-0.082,-0.082l-0.081,-0.084l-0.081,-0.084l-0.079,-0.086l-0.079,-0.086l-0.077,-0.087l-0.077,-0.087l-0.076,-0.089l-0.075,-0.089l-0.073,-0.09l-0.073,-0.091l-0.072,-0.092l-0.07,-0.092l-0.07,-0.094l-0.069,-0.094l-0.067,-0.094l-0.067,-0.096l-0.065,-0.096l-0.065,-0.097l-0.063,-0.098l0.087,-0.1l0.088,-0.099l0.089,-0.099l0.09,-0.099l0.091,-0.099l0.092,-0.098l0.093,-0.098l0.094,-0.097l0.094,-0.096l0.096,-0.096l0.096,-0.094l0.097,-0.094l0.098,-0.093l0.098,-0.092l0.099,-0.091l0.1,-0.089l0.1,-0.089l0.1,-0.087l0.101,-0.085l0.102,-0.084l0.102,-0.083l0.102,-0.081l0.103,-0.08l0.103,-0.077l0.103,-0.076l0.103,-0.074l0.104,-0.072l0.103,-0.07l0.104,-0.068l0.104,-0.066l0.104,-0.063l0.104,-0.061l0.104,-0.059l0.103,-0.057l0.104,-0.053l0.103,-0.052l0.103,-0.048l0.103,-0.046l0.103,-0.043l0.102,-0.04l0.102,-0.037l0.102,-0.034l0.101,-0.032l0.1,-0.027l0.051,-0.013l0.05,-0.012l0.05,-0.011l0.049,-0.011l0.05,-0.009l0.049,-0.009l0.05,-0.007l0.049,-0.007l0.049,-0.006l0.048,-0.005l0.049,-0.004l0.048,-0.004l0.049,-0.002l0.048,-0.001l0.047,-0.001l0.048,0.001l0.048,0.001l0.047,0.002l0.047,0.004l0.047,0.004l0.046,0.005l0.047,0.007l0.046,0.007l0.046,0.008l0.045,0.01l0.046,0.01l0.045,0.011l0.045,0.013l0.044,0.013l0.045,0.015l0.044,0.015l0.044,0.017l0.043,0.018l0.043,0.019l0.043,0.02l0.043,0.021l0.042,0.022l0.043,0.024l0.041,0.024l0.042,0.026l0.058,0.069l0.059,0.067l0.06,0.066l0.062,0.065l0.064,0.064l0.064,0.062l0.066,0.062l0.067,0.059l0.068,0.059l0.069,0.057l0.07,0.056l0.072,0.054l0.072,0.052l0.073,0.051l0.075,0.049l0.075,0.048l0.076,0.046l0.077,0.044l0.078,0.043l0.079,0.041l0.079,0.039l0.08,0.037l0.081,0.035l0.082,0.033l0.082,0.031l0.083,0.029l0.083,0.027l0.084,0.025l0.085,0.023l0.084,0.021l0.086,0.018l0.085,0.016l0.086,0.014l0.087,0.012l0.087,0.009l0.087,0.006l0.087,0.005l0.087,0.002l0.088,-0.001l0.088,-0.003l0.087,-0.006l0.088,-0.009l0.088,-0.011l0.088,-0.014l0.088,-0.016l0.088,-0.02l0.088,-0.022l0.087,-0.025l0.088,-0.028l0.087,-0.031l0.087,-0.033l0.087,-0.037l0.086,-0.04l0.087,-0.043l0.085,-0.046l0.086,-0.05l0.085,-0.052l0.084,-0.056l0.084,-0.059l0.042,-0.031l0.042,-0.031l0.041,-0.033l0.042,-0.033l0.041,-0.034l0.041,-0.035l0.041,-0.036l0.041,-0.036l0.04,-0.038l0.041,-0.038l0.21,-0.207l0.215,-0.206l0.217,-0.207l0.22,-0.207l0.222,-0.206l0.224,-0.207l0.45,-0.413l0.45,-0.412l0.446,-0.41l0.22,-0.204l0.218,-0.203l0.215,-0.202l0.211,-0.202l0.207,-0.201l0.202,-0.199l0.1,-0.099l0.098,-0.1l0.096,-0.098l0.096,-0.099l0.093,-0.098l0.092,-0.098l0.091,-0.097l0.088,-0.098l0.087,-0.096l0.085,-0.097l0.084,-0.096l0.081,-0.095l0.079,-0.096l0.077,-0.094l0.075,-0.095l0.072,-0.094l0.071,-0.093l0.068,-0.093l0.065,-0.093l0.063,-0.092l0.061,-0.092l0.058,-0.091l0.055,-0.091l0.053,-0.09l0.049,-0.089l0.047,-0.09l0.044,-0.088l0.041,-0.088l0.028,-0.063l0.026,-0.064l0.025,-0.064l0.023,-0.064l0.022,-0.065l0.021,-0.066l0.02,-0.065l0.018,-0.066l0.017,-0.067l0.015,-0.066l0.015,-0.067l0.013,-0.067l0.011,-0.068l0.011,-0.067l0.009,-0.068l0.008,-0.068l0.006,-0.068l0.005,-0.068l0.004,-0.069l0.003,-0.068l0.001,-0.068l0.001,-0.069l-0.002,-0.068l-0.002,-0.069l-0.004,-0.068l-0.004,-0.068l-0.006,-0.068l-0.008,-0.069l-0.008,-0.068l-0.01,-0.067l-0.011,-0.068l-0.012,-0.067l-0.014,-0.068l-0.014,-0.067l-0.016,-0.066l-0.017,-0.067l-0.019,-0.066l-0.019,-0.066l-0.021,-0.065l-0.021,-0.065l-0.023,-0.065l-0.025,-0.064l-0.025,-0.064l-0.026,-0.063l-0.028,-0.063l-0.029,-0.063l-0.03,-0.061l-0.031,-0.062l-0.032,-0.06l-0.034,-0.06l-0.034,-0.06l-0.036,-0.058l-0.037,-0.059l-0.038,-0.057l-0.039,-0.057l-0.04,-0.056l-0.041,-0.055l-0.042,-0.054l-0.044,-0.054l-0.045,-0.053l-0.045,-0.052l-0.047,-0.051l-0.048,-0.05l-0.049,-0.049l-0.063,-0.06l-0.066,-0.058l-0.066,-0.056l-0.068,-0.054l-0.069,-0.052l-0.07,-0.051l-0.072,-0.048l-0.072,-0.047l-0.074,-0.044l-0.075,-0.043l-0.076,-0.041l-0.076,-0.039l-0.078,-0.037l-0.078,-0.035l-0.08,-0.034l-0.08,-0.031l-0.081,-0.03l-0.081,-0.027l-0.082,-0.026l-0.083,-0.024l-0.083,-0.022l-0.084,-0.02l-0.084,-0.018l-0.085,-0.017l-0.085,-0.014l-0.085,-0.013l-0.086,-0.01l-0.086,-0.009l-0.086,-0.007l-0.086,-0.005l-0.086,-0.003l-0.086,-0.001l-0.087,0.001l-0.086,0.003l-0.086,0.004l-0.086,0.007l-0.086,0.008l-0.086,0.011l-0.085,0.012l-0.085,0.014l-0.085,0.016l-0.085,0.018l-0.084,0.02l-0.083,0.022l-0.083,0.024l-0.082,0.025l-0.082,0.028l-0.081,0.029l-0.081,0.032l-0.079,0.033l-0.079,0.035l-0.078,0.038l-0.077,0.039l-0.076,0.041l-0.075,0.043l-0.074,0.044l-0.074,0.047l-0.071,0.049l-0.071,0.051l-0.07,0.052l-0.068,0.055l-0.067,0.056l-0.066,0.058l-0.064,0.061l-0.132,0.129l-0.133,0.129l-0.135,0.13l-0.136,0.129l-0.275,0.259l-0.278,0.258l-0.125,-0.06l-0.126,-0.058l-0.126,-0.056l-0.127,-0.056l-0.127,-0.053l-0.128,-0.052l-0.128,-0.051l-0.129,-0.049l-0.129,-0.047l-0.13,-0.046l-0.13,-0.045l-0.131,-0.043l-0.131,-0.042l-0.131,-0.04l-0.132,-0.038l-0.132,-0.037l-0.132,-0.035l-0.133,-0.034l-0.133,-0.033l-0.134,-0.031l-0.133,-0.029l-0.134,-0.028l-0.135,-0.027l-0.134,-0.025l-0.135,-0.023l-0.135,-0.022l-0.135,-0.021l-0.135,-0.019l-0.136,-0.017l-0.135,-0.017l-0.136,-0.014l-0.136,-0.013l-0.136,-0.012l-0.136,-0.01l-0.136,-0.009l-0.137,-0.007l-0.136,-0.006l-0.136,-0.004l-0.137,-0.003l-0.136,-0.001l-0.136,0l-0.136,0.002l-0.137,0.003l-0.136,0.004l-0.136,0.006l-0.136,0.008l-0.136,0.009l-0.135,0.01l-0.136,0.012l-0.135,0.013l-0.135,0.015l-0.135,0.016l-0.135,0.018l-0.135,0.019l-0.134,0.02l-0.134,0.022l-0.134,0.024l-0.134,0.025l-0.133,0.026l-0.133,0.028l-0.133,0.029l-0.132,0.031l-0.132,0.032l-0.132,0.033l0.139,-0.162l0.14,-0.163l0.142,-0.161l0.144,-0.162l0.145,-0.161l0.146,-0.16l0.148,-0.16l0.148,-0.16l0.15,-0.159l0.151,-0.159l0.153,-0.159l0.153,-0.159l0.154,-0.158l0.154,-0.158l0.312,-0.315l0.314,-0.314l0.316,-0.313l0.318,-0.313l0.318,-0.312l0.637,-0.623l0.317,-0.312l0.316,-0.311l0.093,-0.088l0.095,-0.088l0.095,-0.086l0.096,-0.084l0.097,-0.083l0.098,-0.082l0.098,-0.081l0.1,-0.079l0.101,-0.077l0.101,-0.077l0.102,-0.075l0.103,-0.073l0.104,-0.072l0.104,-0.071l0.106,-0.07l0.106,-0.068l0.106,-0.067l0.108,-0.065l0.108,-0.064l0.109,-0.063l0.11,-0.061l0.11,-0.06l0.111,-0.058l0.111,-0.057l0.112,-0.056l0.113,-0.054l0.113,-0.053l0.114,-0.052l0.115,-0.05l0.115,-0.048l0.115,-0.048l0.116,-0.046l0.117,-0.044l0.117,-0.043l0.117,-0.042l0.118,-0.04l0.119,-0.039l0.118,-0.038l0.12,-0.036l0.119,-0.034l0.12,-0.034l0.12,-0.031l0.121,-0.031l0.121,-0.029l0.121,-0.027l0.122,-0.027l0.122,-0.024l0.122,-0.024l0.123,-0.021l0.122,-0.021l0.123,-0.019l0.123,-0.018l0.124,-0.016l0.123,-0.014l0.124,-0.014l0.124,-0.012l0.124,-0.01l0.124,-0.009l0.124,-0.008l0.124,-0.006l0.124,-0.004l0.125,-0.003l0.124,-0.002l0.125,-0.001l0.124,0.002Zm-0.24,0.999l-0.113,0.001l-0.113,0.003l-0.113,0.004l-0.112,0.006l-0.113,0.007l-0.113,0.008l-0.112,0.009l-0.112,0.011l-0.112,0.012l-0.112,0.014l-0.112,0.014l-0.112,0.016l-0.111,0.017l-0.111,0.019l-0.111,0.02l-0.111,0.021l-0.11,0.022l-0.111,0.024l-0.11,0.025l-0.109,0.026l-0.11,0.028l-0.109,0.029l-0.108,0.03l-0.108,0.031l-0.108,0.033l-0.108,0.034l-0.107,0.035l-0.107,0.036l-0.106,0.038l-0.106,0.039l-0.105,0.04l-0.105,0.042l-0.105,0.043l-0.104,0.044l-0.103,0.045l-0.103,0.047l-0.102,0.047l-0.102,0.049l-0.102,0.051l-0.1,0.051l-0.1,0.053l-0.1,0.054l-0.099,0.055l-0.098,0.057l-0.098,0.058l-0.097,0.059l-0.096,0.06l-0.096,0.061l-0.095,0.063l-0.094,0.064l-0.093,0.065l-0.093,0.066l-0.092,0.068l-0.092,0.069l-0.09,0.07l-0.09,0.071l-0.089,0.072l-0.088,0.074l-0.087,0.075l-0.087,0.076l-0.085,0.077l-0.085,0.079l-0.082,0.078l-0.311,0.306l-0.318,0.312l-0.637,0.623l-0.317,0.311l-0.316,0.311l-0.313,0.311l-0.311,0.31l-0.308,0.312l-0.142,0.145l0.009,-0.001l0.146,-0.005l0.147,-0.003l0.147,-0.002l0.147,0l0.148,0.001l0.147,0.003l0.147,0.005l0.147,0.006l0.147,0.008l0.147,0.009l0.147,0.011l0.146,0.013l0.147,0.014l0.147,0.016l0.146,0.017l0.147,0.019l0.146,0.021l0.146,0.022l0.146,0.024l0.145,0.025l0.145,0.027l0.146,0.029l0.144,0.03l0.145,0.032l0.144,0.033l0.144,0.035l0.144,0.037l0.143,0.039l0.143,0.04l0.143,0.041l0.142,0.043l0.142,0.045l0.141,0.047l0.141,0.048l0.141,0.05l0.14,0.052l0.139,0.053l0.139,0.055l0.139,0.056l0.052,0.022l0.062,-0.058l0.132,-0.126l0.131,-0.126l0.129,-0.126l0.138,-0.135l0.083,-0.078l0.086,-0.076l0.087,-0.073l0.089,-0.071l0.09,-0.068l0.092,-0.066l0.094,-0.063l0.094,-0.061l0.096,-0.058l0.097,-0.055l0.098,-0.053l0.099,-0.05l0.1,-0.047l0.101,-0.046l0.101,-0.042l0.103,-0.04l0.103,-0.038l0.104,-0.035l0.105,-0.032l0.105,-0.031l0.106,-0.027l0.106,-0.025l0.106,-0.023l0.107,-0.02l0.108,-0.018l0.107,-0.016l0.108,-0.013l0.108,-0.01l0.108,-0.008l0.109,-0.006l0.108,-0.004l0.108,-0.001l0.109,0.002l0.108,0.003l0.108,0.007l0.108,0.008l0.108,0.011l0.108,0.013l0.107,0.016l0.107,0.018l0.107,0.021l0.106,0.023l0.106,0.025l0.106,0.028l0.104,0.03l0.105,0.033l0.103,0.035l0.103,0.038l0.102,0.04l0.101,0.042l0.101,0.046l0.099,0.047l0.099,0.05l0.097,0.053l0.097,0.055l0.095,0.058l0.094,0.06l0.092,0.063l0.092,0.065l0.089,0.068l0.089,0.07l0.087,0.073l0.085,0.076l0.086,0.081l0.069,0.07l0.062,0.065l0.06,0.066l0.059,0.067l0.058,0.068l0.056,0.069l0.054,0.07l0.053,0.07l0.052,0.072l0.05,0.073l0.048,0.073l0.047,0.075l0.046,0.075l0.044,0.075l0.042,0.077l0.041,0.077l0.04,0.078l0.038,0.078l0.036,0.079l0.035,0.08l0.034,0.08l0.032,0.081l0.031,0.082l0.029,0.081l0.027,0.082l0.026,0.083l0.025,0.083l0.023,0.084l0.022,0.084l0.02,0.084l0.018,0.085l0.017,0.084l0.015,0.086l0.014,0.085l0.013,0.086l0.01,0.086l0.01,0.086l0.007,0.086l0.007,0.086l0.004,0.087l0.003,0.087l0.002,0.086l-0.001,0.087l-0.001,0.087l-0.004,0.087l-0.005,0.087l-0.007,0.087l-0.008,0.087l-0.01,0.086l-0.011,0.087l-0.014,0.086l-0.015,0.087l-0.016,0.086l-0.019,0.086l-0.02,0.086l-0.021,0.085l-0.024,0.085l-0.025,0.085l-0.027,0.085l-0.029,0.084l-0.03,0.083l-0.033,0.084l-0.034,0.082l-0.036,0.084l-0.051,0.11l-0.055,0.11l-0.058,0.11l-0.06,0.108l-0.063,0.108l-0.065,0.107l-0.068,0.107l-0.07,0.106l-0.072,0.105l-0.074,0.105l-0.077,0.105l-0.078,0.105l-0.081,0.104l-0.082,0.104l-0.084,0.103l-0.086,0.104l-0.088,0.103l-0.09,0.103l-0.091,0.104l-0.092,0.103l-0.094,0.103l-0.096,0.103l-0.097,0.103l-0.098,0.103l-0.1,0.103l-0.1,0.103l-0.102,0.103l-0.104,0.104l-0.208,0.205l-0.213,0.206l-0.216,0.206l-0.219,0.206l-0.221,0.207l-0.223,0.207l-0.448,0.411l-0.451,0.412l-0.448,0.411l-0.221,0.205l-0.219,0.204l-0.216,0.203l-0.213,0.202l-0.209,0.202l-0.213,0.209l-0.051,0.048l-0.05,0.047l-0.052,0.045l-0.051,0.045l-0.052,0.044l-0.052,0.043l-0.052,0.042l-0.053,0.042l-0.053,0.04l-0.056,0.041l-0.105,0.074l-0.109,0.072l-0.11,0.068l-0.112,0.064l-0.112,0.061l-0.114,0.056l-0.114,0.053l-0.115,0.049l-0.116,0.045l-0.116,0.041l-0.117,0.037l-0.117,0.034l-0.118,0.03l-0.117,0.026l-0.118,0.022l-0.118,0.018l-0.118,0.015l-0.118,0.012l-0.117,0.008l-0.117,0.004l-0.116,0.001l-0.116,-0.003l-0.116,-0.005l-0.115,-0.009l-0.114,-0.012l-0.113,-0.016l-0.113,-0.018l-0.112,-0.021l-0.11,-0.024l-0.11,-0.026l-0.109,-0.03l-0.108,-0.032l-0.106,-0.034l-0.106,-0.038l-0.105,-0.039l-0.103,-0.042l-0.102,-0.045l-0.101,-0.046l-0.1,-0.049l-0.098,-0.051l-0.098,-0.053l-0.096,-0.055l-0.094,-0.057l-0.093,-0.059l-0.092,-0.062l-0.091,-0.062l-0.089,-0.065l-0.088,-0.067l-0.086,-0.068l-0.085,-0.07l-0.084,-0.071l-0.081,-0.074l-0.081,-0.075l-0.079,-0.076l-0.077,-0.078l-0.076,-0.079l-0.074,-0.081l-0.017,-0.02l-0.02,-0.01l-0.022,-0.009l-0.021,-0.009l-0.022,-0.008l-0.021,-0.008l-0.022,-0.007l-0.023,-0.007l-0.022,-0.006l-0.023,-0.006l-0.023,-0.005l-0.024,-0.005l-0.023,-0.004l-0.025,-0.004l-0.024,-0.003l-0.026,-0.003l-0.025,-0.002l-0.027,-0.002l-0.026,-0.002l-0.027,0l-0.028,-0.001l-0.028,0.001l-0.029,0l-0.03,0.002l-0.03,0.002l-0.03,0.002l-0.031,0.004l-0.032,0.004l-0.032,0.004l-0.033,0.005l-0.033,0.006l-0.034,0.006l-0.035,0.008l-0.035,0.007l-0.035,0.009l-0.033,0.008l-0.077,0.021l-0.075,0.024l-0.077,0.025l-0.079,0.029l-0.08,0.032l-0.082,0.034l-0.083,0.037l-0.085,0.04l-0.086,0.042l-0.086,0.046l-0.088,0.047l-0.089,0.05l-0.089,0.053l-0.091,0.055l-0.091,0.058l-0.091,0.06l-0.092,0.062l-0.092,0.064l-0.093,0.066l-0.093,0.069l-0.093,0.07l-0.093,0.072l-0.094,0.074l-0.093,0.076l-0.093,0.077l-0.093,0.079l-0.093,0.081l-0.093,0.081l-0.093,0.084l-0.092,0.084l-0.091,0.086l-0.092,0.087l-0.091,0.087l-0.09,0.089l-0.089,0.09l-0.089,0.09l-0.089,0.092l-0.076,0.08l0.052,0.068l0.065,0.083l0.066,0.083l0.067,0.081l0.068,0.081l0.068,0.081l0.07,0.079l0.07,0.079l0.072,0.078l0.072,0.078l0.073,0.076l0.074,0.076l0.075,0.076l0.075,0.074l0.077,0.074l0.077,0.073l0.078,0.072l0.079,0.071l0.079,0.071l0.081,0.07l0.081,0.069l0.081,0.068l0.083,0.067l0.083,0.067l0.084,0.066l0.085,0.064l0.085,0.065l0.086,0.063l0.087,0.062l0.087,0.062l0.088,0.06l0.088,0.06l0.09,0.059l0.089,0.058l0.091,0.057l0.09,0.056l0.092,0.055l0.092,0.055l0.092,0.053l0.093,0.053l0.094,0.051l0.094,0.051l0.094,0.05l0.095,0.048l0.096,0.048l0.096,0.047l0.096,0.046l0.097,0.044l0.097,0.044l0.097,0.043l0.098,0.042l0.098,0.041l0.099,0.04l0.099,0.038l0.099,0.038l0.1,0.037l0.1,0.036l0.1,0.034l0.1,0.034l0.101,0.033l0.101,0.031l0.101,0.031l0.101,0.029l0.102,0.028l0.102,0.028l0.102,0.026l0.102,0.025l0.102,0.024l0.103,0.023l0.103,0.021l0.102,0.021l0.103,0.02l0.103,0.018l0.103,0.017l0.104,0.017l0.103,0.015l0.103,0.013l0.103,0.013l0.104,0.012l0.103,0.01l0.103,0.01l0.104,0.008l0.103,0.007l0.103,0.006l0.103,0.004l0.104,0.004l0.103,0.002l0.103,0.001l0.103,0l0.103,-0.001l0.102,-0.003l0.103,-0.003l0.103,-0.005l0.102,-0.006l0.102,-0.008l0.102,-0.008l0.102,-0.01l0.102,-0.011l0.101,-0.012l0.101,-0.014l0.101,-0.014l0.101,-0.016l0.101,-0.017l0.1,-0.019l0.1,-0.019l0.1,-0.021l0.1,-0.023l0.099,-0.023l0.099,-0.025l0.099,-0.026l0.098,-0.027l0.098,-0.029l0.098,-0.03l0.097,-0.031l0.097,-0.032l0.097,-0.034l0.096,-0.035l0.096,-0.037l0.096,-0.037l0.095,-0.039l0.094,-0.041l0.139,-0.061l0.136,-0.064l0.136,-0.066l0.136,-0.069l0.135,-0.071l0.134,-0.073l0.134,-0.076l0.133,-0.079l0.133,-0.081l0.132,-0.083l0.132,-0.085l0.131,-0.087l0.131,-0.09l0.13,-0.092l0.13,-0.093l0.129,-0.096l0.13,-0.098l0.128,-0.1l0.129,-0.102l0.128,-0.104l0.128,-0.105l0.127,-0.107l0.127,-0.109l0.127,-0.111l0.127,-0.112l0.126,-0.114l0.126,-0.115l0.126,-0.117l0.125,-0.118l0.126,-0.119l0.125,-0.121l0.125,-0.122l0.125,-0.123l0.125,-0.124l0.125,-0.126l0.123,-0.126l0.25,-0.256l0.249,-0.26l0.249,-0.262l0.249,-0.265l0.249,-0.267l0.25,-0.269l0.502,-0.541l0.253,-0.271l0.254,-0.271l0.255,-0.271l0.257,-0.27l0.258,-0.268l0.131,-0.134l0.124,-0.125l0.079,-0.084l0.079,-0.086l0.078,-0.086l0.077,-0.087l0.075,-0.089l0.074,-0.089l0.073,-0.089l0.072,-0.091l0.07,-0.091l0.068,-0.092l0.068,-0.093l0.066,-0.093l0.065,-0.094l0.064,-0.095l0.062,-0.095l0.061,-0.096l0.06,-0.097l0.058,-0.098l0.057,-0.098l0.056,-0.098l0.055,-0.099l0.053,-0.1l0.052,-0.101l0.051,-0.101l0.049,-0.101l0.048,-0.102l0.047,-0.103l0.046,-0.103l0.044,-0.103l0.043,-0.104l0.042,-0.105l0.04,-0.105l0.039,-0.105l0.038,-0.106l0.037,-0.106l0.035,-0.107l0.034,-0.107l0.033,-0.107l0.031,-0.108l0.031,-0.108l0.029,-0.109l0.027,-0.109l0.027,-0.109l0.025,-0.109l0.024,-0.11l0.022,-0.11l0.022,-0.11l0.02,-0.11l0.018,-0.111l0.018,-0.111l0.016,-0.11l0.015,-0.112l0.014,-0.111l0.012,-0.111l0.011,-0.112l0.01,-0.112l0.009,-0.112l0.007,-0.111l0.006,-0.112l0.005,-0.112l0.004,-0.112l0.002,-0.112l0.001,-0.113l0,-0.112l-0.002,-0.112l-0.002,-0.112l-0.004,-0.112l-0.006,-0.111l-0.006,-0.112l-0.008,-0.112l-0.009,-0.112l-0.01,-0.111l-0.012,-0.111l-0.012,-0.112l-0.014,-0.111l-0.016,-0.11l-0.016,-0.111l-0.018,-0.11l-0.019,-0.11l-0.02,-0.11l-0.021,-0.11l-0.023,-0.109l-0.024,-0.109l-0.025,-0.109l-0.026,-0.108l-0.028,-0.108l-0.029,-0.108l-0.03,-0.107l-0.031,-0.107l-0.032,-0.107l-0.034,-0.106l-0.035,-0.106l-0.036,-0.105l-0.037,-0.105l-0.039,-0.104l-0.039,-0.104l-0.041,-0.103l-0.042,-0.103l-0.044,-0.103l-0.044,-0.101l-0.046,-0.101l-0.047,-0.101l-0.048,-0.1l-0.049,-0.1l-0.05,-0.098l-0.052,-0.099l-0.053,-0.097l-0.054,-0.097l-0.055,-0.096l-0.056,-0.096l-0.057,-0.095l-0.059,-0.094l-0.06,-0.093l-0.061,-0.093l-0.062,-0.092l-0.063,-0.091l-0.065,-0.091l-0.065,-0.09l-0.067,-0.088l-0.068,-0.088l-0.069,-0.088l-0.07,-0.086l-0.072,-0.086l-0.072,-0.084l-0.074,-0.084l-0.075,-0.083l-0.076,-0.082l-0.072,-0.077l-0.082,-0.082l-0.088,-0.085l-0.088,-0.083l-0.089,-0.083l-0.089,-0.08l-0.091,-0.08l-0.091,-0.078l-0.092,-0.076l-0.092,-0.076l-0.094,-0.073l-0.094,-0.073l-0.094,-0.071l-0.096,-0.069l-0.096,-0.069l-0.096,-0.066l-0.098,-0.066l-0.098,-0.064l-0.098,-0.063l-0.099,-0.061l-0.1,-0.06l-0.1,-0.058l-0.101,-0.058l-0.102,-0.056l-0.102,-0.054l-0.102,-0.053l-0.103,-0.052l-0.104,-0.05l-0.104,-0.05l-0.104,-0.047l-0.105,-0.047l-0.106,-0.045l-0.106,-0.043l-0.106,-0.043l-0.107,-0.041l-0.107,-0.039l-0.107,-0.039l-0.108,-0.036l-0.108,-0.036l-0.109,-0.034l-0.109,-0.033l-0.109,-0.032l-0.11,-0.03l-0.109,-0.029l-0.111,-0.027l-0.11,-0.027l-0.111,-0.025l-0.111,-0.023l-0.111,-0.022l-0.111,-0.021l-0.112,-0.02l-0.111,-0.018l-0.112,-0.017l-0.112,-0.016l-0.112,-0.014l-0.113,-0.013l-0.112,-0.011l-0.113,-0.011l-0.112,-0.009l-0.113,-0.007l-0.113,-0.006l-0.113,-0.005l-0.113,-0.004l-0.113,-0.002l-0.112,-0.001l-0.113,0Z" style="fill:#515151;"/><defs><linearGradient id="_Linear1" x1="0" y1="0" x2="1" y2="0" gradientUnits="userSpaceOnUse" gradientTransform="matrix(0,34.7232,-34.7232,0,31.2786,8.43342)"><stop offset="0" style="stop-color:#686868;stop-opacity:1"/><stop offset="0.5" style="stop-color:#5a5a5a;stop-opacity:1"/><stop offset="1" style="stop-color:#a0a0a0;stop-opacity:1"/></linearGradient></defs></svg>